<svg width="24" height="25" xmlns="http://www.w3.org/2000/svg" fill="none">

 <g>
  <path id="svg_1" fill="black" d="m2.125,0.875c-0.55228,0 -1,0.44772 -1,1c0,0.55228 0.44772,1 1,1l0,-2zm2.22222,1l0.98038,-0.19712c-0.09388,-0.46695 -0.50408,-0.80288 -0.98038,-0.80288l0,1zm-0.53593,2.40762c0.10886,0.54145 0.63604,0.89213 1.17749,0.78327c0.54145,-0.10887 0.89213,-0.63605 0.78327,-1.1775l-1.96076,0.39423zm2.75815,7.64488c-0.55228,0 -1,0.4477 -1,1c0,0.5523 0.44772,1 1,1l0,-2zm11.11116,1l0,1c0.378,0 0.7237,-0.2131 0.8934,-0.5509l-0.8934,-0.4491zm4.4444,-8.84199l0.8935,0.4491c0.1558,-0.30999 0.1398,-0.6786 -0.0423,-0.97393c-0.1821,-0.29533 -0.5042,-0.47517 -0.8512,-0.47517l0,1zm-17.33333,-1c-0.55229,0 -1,0.44771 -1,1c0,0.55228 0.44771,1 1,1l0,-2zm0.79739,10.03909c0.10887,0.5415 0.63605,0.8922 1.1775,0.7833c0.54145,-0.1089 0.89213,-0.636 0.78326,-1.1775l-1.96076,0.3942zm0.18299,-9.23621c-0.10887,-0.54145 -0.63605,-0.89213 -1.1775,-0.78327c-0.54145,0.10887 -0.89213,0.63605 -0.78326,1.1775l1.96076,-0.39423zm1.50263,9.74811c0.39155,-0.3895 0.39323,-1.0227 0.00374,-1.4142c-0.38949,-0.3916 -1.02266,-0.3932 -1.41421,-0.0037l1.41047,1.4179zm-3.25301,1.8254l-0.70524,-0.709l0.70524,0.709zm13.65893,2.8866c0.5522,0 1,-0.4477 1,-1c0,-0.5522 -0.4478,-1 -1,-1l0,2zm0,-1l-1,0c0,0.2662 0.106,0.5213 0.2947,0.709l0.7053,-0.709zm2.2222,2.2105l-0.7053,0.709c0.1874,0.1864 0.441,0.291 0.7053,0.291l0,-1zm-11.11113,0l-0.86488,-0.5019c-0.08851,0.1524 0.55238,1.0756 -0.13512,0.5019l1,0zm0,2.2105l-1,0c0,0.1764 0.04661,0.3495 0.13512,0.502l0.86488,-0.502zm-6.66667,-18.8945l2.22222,0l0,-2l-2.22222,0l0,2zm1.24184,-0.80288l0.44445,2.2105l1.96076,-0.39423l-0.44445,-2.21051l-1.96076,0.39424zm3.2026,11.85538l11.11116,0l0,-2l-11.11116,0l0,2zm12.00456,-0.5509l4.4445,-8.84199l-1.787,-0.89821l-4.4444,8.842l1.7869,0.8982zm3.551,-10.29109l-17.33333,0l0,2l17.33333,0l0,-2zm-15.01268,10.14489l-1.34027,-9.34201l-1.96076,0.39423l1.77777,8.84198l1.52326,0.1058zm-1.24811,-1.0118l-2.54778,2.5343l1.41047,1.4179l2.54778,-2.5343l-1.41047,-1.4179zm-2.54778,2.5343c-1.34031,1.3332 -0.3804,3.5956 1.49079,3.5956l0,-2c-0.04014,0 -0.05669,-0.01 -0.06488,-0.0157c-0.01261,-0.0089 -0.02796,-0.0256 -0.03846,-0.0508c-0.01051,-0.0253 -0.01113,-0.0468 -0.00885,-0.0599c0.00133,-0.0076 0.0048,-0.0243 0.03187,-0.0513l-1.41047,-1.4179zm1.49079,3.5956l12.87338,0l0,-2l-12.87338,0l0,2zm13.87338,-1c0,-0.6635 -0.9578,2.7895 -0.2778,2.7895l0.125,0.1875c-1.7746,0 -1.8472,-4.7551 -1.8472,-2.977l2,0zm-0.5903,4.102c0.68,0 -0.5278,-0.3905 -0.5278,0.273l1.1875,-1.3125c0,-1.7781 0.8649,0.977 -0.9097,0.977l0.25,0.0625zm0.2222,-0.977c0,0.6636 0.5828,-1.4145 -0.0972,-1.4145l0.4375,1.5c1.7746,0 -0.5903,5.8801 0.0972,-1.0855l-0.4375,1zm1.1705,-0.6234l-1.0972,-3.2105l-1.4105,1.4179l2.2222,2.2105l0.2855,-0.4179zm-10.38896,0.2109c0.27521,-0.4741 1.40206,-0.7089 1.93976,-0.5656l-1.1724,0.5674c-1.4679,3.0005 -0.26653,-1.202 -0.99711,0.0568l0.22975,-0.0586zm1.93976,-0.5656c0.5368,0.1431 -1.0954,-0.0628 -1.0954,0.4814l0.6875,0.3125c0,-1.4568 0.5792,-0.1641 -0.827,-0.539l1.2349,-0.2549zm-1.3454,1.1689c0,0.5442 1.8822,1.0258 1.3454,1.1689l-1.5474,-0.6925c1.4062,-0.3748 -0.298,1.1054 -0.298,-0.3514l0.5,-0.125zm-0.2796,0.8564c-0.5377,0.1433 0.52295,0.221 0.24774,-0.2531l-1.72975,1.0039c0.73058,1.2588 -0.47079,-0.7562 0.93461,-1.1308l0.5474,0.38zm0.38287,0.2488l0,-2.2105l-2,0l0,2.2105l2,0z"/>
  <ellipse rx="3.09375" id="svg_5" cy="20.5625" cx="16.96875" fill="black"/>
  <ellipse ry="3" rx="3.0625" id="svg_8" cy="20.75" cx="8.25" fill="black"/>
 </g>
</svg>